<svg width="65" height="65" viewBox="0 0 65 65" fill="none" xmlns="http://www.w3.org/2000/svg">
<rect width="65" height="65" rx="10" fill="#0F0F0F"/>
<path d="M23.1497 37.7977C22.7802 37.3947 22.5625 36.8808 22.5326 36.3408V29.607C22.5625 29.0669 22.7801 28.553 23.1497 28.1501L23.6377 27.6736C23.8014 27.5135 23.8933 27.2965 23.8933 27.0703C23.8933 26.8441 23.8014 26.6272 23.6377 26.4671L18.461 21.412C18.2968 21.2524 18.0746 21.1628 17.8429 21.1628C17.6112 21.1628 17.389 21.2524 17.2248 21.412L15.2543 23.336C15.0914 23.4965 15 23.7133 15 23.9392C15 24.1652 15.0914 24.382 15.2543 24.5425L18.949 28.1499C19.3192 28.5525 19.5372 29.0666 19.5668 29.6068V36.3407C19.5373 36.8807 19.3192 37.3944 18.949 37.7966L15.2543 41.4054C15.0914 41.5659 15 41.7828 15 42.0086C15 42.2345 15.0914 42.4514 15.2543 42.6119L17.2248 44.5358C17.389 44.6954 17.6112 44.785 17.8429 44.785C18.0746 44.785 18.2968 44.6954 18.461 44.5358L23.6377 39.4804C23.8014 39.3202 23.8933 39.1033 23.8933 38.8772C23.8933 38.6509 23.8014 38.4341 23.6377 38.274L23.1497 37.7977Z" fill="#583BD1"/>
<path d="M37.3763 42.0426C36.9637 42.4033 36.4376 42.6161 35.8845 42.6459H28.9897C28.4362 42.6161 27.9096 42.4034 27.4965 42.0426L27.0096 41.5648C26.8449 41.4057 26.6226 41.3165 26.3909 41.3165C26.1593 41.3165 25.937 41.4057 25.7723 41.5648L20.5962 46.6199C20.4328 46.7804 20.3411 46.9976 20.3411 47.2239C20.3411 47.4502 20.4328 47.6673 20.5962 47.8277L22.5667 49.7518C22.7313 49.9108 22.9534 50 23.185 50C23.4165 50 23.6387 49.9108 23.8032 49.7518L27.4971 46.1425C27.9101 45.7819 28.4366 45.5693 28.9898 45.5394H35.8866C36.4397 45.5691 36.9659 45.7818 37.3785 46.1425L41.074 49.7518C41.2385 49.9108 41.4605 50 41.692 50C41.9234 50 42.1455 49.9108 42.3098 49.7518L44.2804 47.8277C44.4439 47.6673 44.5355 47.4502 44.5355 47.2239C44.5355 46.9976 44.4439 46.7804 44.2804 46.6199L39.1005 41.5645C38.9362 41.4054 38.7142 41.3162 38.4829 41.3162C38.2515 41.3162 38.0293 41.4054 37.865 41.5645L37.3763 42.0426Z" fill="#583BD1"/>
<path d="M41.8481 28.202C42.2185 28.6054 42.4369 29.1201 42.4669 29.661V36.3923C42.4367 36.9329 42.2183 37.4473 41.8481 37.8501L41.3599 38.3277C41.1968 38.4881 41.1052 38.7049 41.1052 38.9311C41.1052 39.1571 41.1968 39.3739 41.3599 39.5343L46.5381 44.5887C46.7023 44.7483 46.9246 44.8378 47.1561 44.8378C47.3878 44.8378 47.61 44.7483 47.7741 44.5887L49.7446 42.6637C49.9081 42.5035 50 42.2865 50 42.0604C50 41.8342 49.9081 41.6172 49.7446 41.457L46.0507 37.8495C45.6804 37.4466 45.4618 36.9323 45.4316 36.3917L45.4326 29.6604C45.4623 29.1195 45.6804 28.6047 46.0507 28.2014L49.7446 24.5939C49.9081 24.434 50 24.2173 50 23.9913C50 23.7654 49.9081 23.5486 49.7446 23.3887L47.7741 21.4636C47.6929 21.3844 47.5967 21.3215 47.4907 21.2787C47.3845 21.2358 47.271 21.2137 47.1561 21.2137C47.0414 21.2137 46.9277 21.2358 46.8217 21.2787C46.7156 21.3215 46.6193 21.3844 46.5381 21.4636L41.3599 26.5179C41.1968 26.6783 41.1052 26.8952 41.1052 27.1212C41.1052 27.3473 41.1968 27.5642 41.3599 27.7246L41.8481 28.202Z" fill="#583BD1"/>
<path d="M27.6213 23.9573C28.0337 23.5961 28.5602 23.3832 29.1134 23.3539H36.0088C36.5619 23.3837 37.0881 23.5965 37.5009 23.9573L37.99 24.4347C38.071 24.514 38.1673 24.5768 38.2733 24.6197C38.3793 24.6625 38.4928 24.6846 38.6075 24.6846C38.7222 24.6846 38.8359 24.6625 38.9418 24.6197C39.0478 24.5768 39.144 24.514 39.2252 24.4347L44.4026 19.3793C44.5659 19.2189 44.6576 19.0018 44.6576 18.7755C44.6576 18.5492 44.5659 18.3321 44.4026 18.1716L42.4321 16.2499C42.2681 16.0899 42.0458 16 41.8139 16C41.582 16 41.3597 16.0899 41.1957 16.2499L37.501 19.8573C37.0882 20.218 36.5621 20.4308 36.009 20.4606H29.1134C28.5602 20.4313 28.0337 20.2185 27.6213 19.8573L23.9265 16.2499C23.762 16.0908 23.5399 16.0016 23.3084 16.0016C23.0769 16.0016 22.8547 16.0908 22.6902 16.2499L20.7197 18.1738C20.5563 18.3343 20.4646 18.5514 20.4646 18.7776C20.4646 19.0039 20.5563 19.221 20.7197 19.3814L25.8959 24.4346C26.0599 24.5946 26.2822 24.6844 26.5141 24.6844C26.7459 24.6844 26.9683 24.5946 27.1322 24.4346L27.6213 23.9573Z" fill="#583BD1"/>
</svg>
