<svg width="54" height="54" viewBox="0 0 54 54" fill="none" xmlns="http://www.w3.org/2000/svg">
<circle cx="27.0001" cy="27" r="23.0294" fill="#252525"/>
<path d="M27 4.5C14.625 4.5 4.5 14.625 4.5 27C4.5 39.375 14.625 49.5 27 49.5C39.375 49.5 49.5 39.375 49.5 27C49.5 14.625 39.375 4.5 27 4.5ZM21.6 38.7C21.105 38.7 20.43 38.52 19.8 38.25L18.5175 41.4L15.9525 40.5L16.3125 39.6225C19.0125 32.8275 22.1175 25.0875 33.75 22.5C33.75 22.5 20.25 22.5 15.8625 34.9875C15.8625 34.9875 13.5 32.625 13.5 29.925C13.5 27.225 16.2 21.4875 22.95 20.1375C24.8625 19.755 27 19.4625 29.115 19.125C34.425 18.405 39.5325 17.685 40.5 15.75C40.5 15.75 36.45 38.7 21.6 38.7Z" fill="#1C9300"/>
</svg>
