<svg width="70" height="66" viewBox="0 0 70 66" fill="none" xmlns="http://www.w3.org/2000/svg">
<g clip-path="url(#clip0_540_392)">
<path d="M48.9087 10.1204C48.9087 15.7098 44.3776 20.2408 38.7883 20.2408C33.199 20.2408 28.6679 15.7098 28.6679 10.1204C28.6679 4.53106 33.199 0 38.7883 0C44.3776 0 48.9087 4.53106 48.9087 10.1204Z" fill="#34BC85"/>
<path d="M33.3331 54.6665C14.9237 54.6665 0 39.7427 0 21.3334V5.3335C18.4094 5.3335 33.3339 20.2572 33.3339 38.6666L33.3331 54.6665Z" fill="#34BC85"/>
<path d="M70 16C51.5907 16 36.6669 30.9237 36.6669 49.3331V65.333C55.0763 65.333 70 50.4092 70 31.9999V16Z" fill="#34BC85"/>
</g>
<defs>
<clipPath id="clip0_540_392">
<rect width="70" height="65.333" fill="white"/>
</clipPath>
</defs>
</svg>
